<?xml version="1.0" encoding="UTF-8"?>
<svg version="1.1" xmlns="http://www.w3.org/2000/svg" width="589" height="445">
<path d="M0 0 C194.37 0 388.74 0 589 0 C589 146.85 589 293.7 589 445 C394.63 445 200.26 445 0 445 C0 298.15 0 151.3 0 0 Z " fill="#000000" transform="translate(0,0)"/>
<path d="M0 0 C1.15242187 -0.00773437 2.30484375 -0.01546875 3.4921875 -0.0234375 C4.59820312 -0.02085938 5.70421875 -0.01828125 6.84375 -0.015625 C7.83568359 -0.01336914 8.82761719 -0.01111328 9.84960938 -0.00878906 C12.54479451 0.25437382 14.1936697 0.8724943 16.5 2.25 C14.32851951 4.42148049 13.29553213 4.713175 10.4375 5.625 C-3.3187439 10.9923206 -15.20916081 21.90300343 -25.5 32.25 C-26.38171875 33.13171875 -27.2634375 34.0134375 -28.171875 34.921875 C-50.08524166 57.9241046 -65.72619851 91.92656986 -65.59765625 123.93359375 C-65.5962413 124.63396255 -65.59482635 125.33433136 -65.59336853 126.05592346 C-65.58782477 128.26649466 -65.57528326 130.47696004 -65.5625 132.6875 C-65.55747771 134.19726415 -65.55291609 135.70702991 -65.54882812 137.21679688 C-65.53787387 140.89456493 -65.5206489 144.57227212 -65.5 148.25 C-72.99546022 146.73504455 -80.16926927 144.55104914 -87.4375 142.1875 C-88.57251953 141.82333984 -89.70753906 141.45917969 -90.87695312 141.08398438 C-99.20580357 138.39709821 -99.20580357 138.39709821 -101.5 137.25 C-102.510625 137.12625 -103.52125 137.0025 -104.5625 136.875 C-108.38413033 136.26839201 -111.69340802 135.26849183 -115.328125 134 C-118.35040838 132.9563338 -121.42385687 132.12157389 -124.5 131.25 C-126.79360674 130.56900037 -129.08512605 129.88094767 -131.375 129.1875 C-132.50679687 128.84589844 -133.63859375 128.50429687 -134.8046875 128.15234375 C-137.5 127.25 -137.5 127.25 -138.5 126.25 C-138.83860328 117.94685859 -136.88748327 110.22328065 -134.625 102.3125 C-134.368396 101.41305664 -134.11179199 100.51361328 -133.84741211 99.58691406 C-132.44424689 94.86649521 -130.81808472 90.61309663 -128.5 86.25 C-127.79230469 84.56970703 -127.79230469 84.56970703 -127.0703125 82.85546875 C-120.91084752 68.71321458 -112.37216802 55.58214373 -101.19921875 44.9140625 C-99.35681584 43.18341715 -99.35681584 43.18341715 -97.5 40.6875 C-75.35141417 13.69391102 -33.74169722 -0.23270136 0 0 Z " fill="#85A9EB" transform="translate(280.5,115.75)"/>
<path d="M0 0 C0.66 0 1.32 0 2 0 C2.51046875 1.0415625 3.0209375 2.083125 3.546875 3.15625 C12.21319199 20.41174178 26.99918574 45.81456549 46 53 C47.85994407 54.27450987 49.69040248 55.59246313 51.5 56.9375 C70.80191205 70.68228339 90.84642263 77.43568208 114 81 C114 81.66 114 82.32 114 83 C124.89 82.67 135.78 82.34 147 82 C146.31512897 87.47896824 145.7122485 91.50131901 144.06640625 96.56787109 C143.66929443 97.80209808 143.27218262 99.03632507 142.86303711 100.30795288 C142.42972591 101.62984705 141.99620873 102.95167371 141.5625 104.2734375 C141.11733863 105.64707941 140.67276825 107.02091298 140.22875977 108.39492798 C139.30167624 111.25901152 138.3700307 114.12155186 137.43457031 116.98291016 C136.23474755 120.65293218 135.04260348 124.32538778 133.85334778 127.99884605 C132.71711284 131.50781721 131.57761676 135.015726 130.4375 138.5234375 C130.22022247 139.192505 130.00294495 139.86157249 129.77908325 140.55091476 C129.16569758 142.4373541 128.54970939 144.32294661 127.93359375 146.20849609 C127.58353271 147.28134857 127.23347168 148.35420105 126.87280273 149.45956421 C126 152 126 152 125 154 C102.0734592 151.76407826 81.66322658 143.82401525 62.453125 131.19921875 C60.28248357 129.77397757 58.26387552 128.64725435 55.90234375 127.515625 C41.89395093 120.20034046 29.04735559 103.31290924 21 90 C21 89.34 21 88.68 21 88 C20.34 88 19.68 88 19 88 C17.74738197 85.52212696 16.49787439 83.04276098 15.25 80.5625 C14.72792969 79.53092773 14.72792969 79.53092773 14.1953125 78.47851562 C9.93934695 70.00599162 6.38703872 61.70378425 3.8125 52.5625 C3.42288086 51.24668945 3.42288086 51.24668945 3.02539062 49.90429688 C-0.23712799 38.46440602 -0.13192727 27.17239656 -0.0625 15.375 C-0.05747303 13.87890775 -0.05291225 12.38281387 -0.04882812 10.88671875 C-0.03792185 7.25777781 -0.02072382 3.62889973 0 0 Z " fill="#445C8A" transform="translate(138,272)"/>
<path d="M0 0 C17.84088331 1.35072934 45.10305579 9.18899329 58.1015625 22.1875 C59.1328125 22.579375 60.1640625 22.97125 61.2265625 23.375 C66.02310679 25.38011278 69.34162981 28.66994314 73.1015625 32.1875 C74.12750994 33.11352849 75.15496043 34.03789341 76.18359375 34.9609375 C88.61351973 46.16653774 97.81069987 57.65087522 106.1015625 72.1875 C106.48231934 72.83428711 106.86307617 73.48107422 107.25537109 74.14746094 C118.69072485 93.74055231 122.30724605 115.9023526 122.1640625 138.25 C122.15903564 139.60611813 122.15447484 140.96223808 122.15039062 142.31835938 C122.13868329 145.60811994 122.12228461 148.89778594 122.1015625 152.1875 C118.00604765 150.82232838 117.28031198 148.86413975 115.1015625 145.1875 C114.08190823 142.86268826 113.08096648 140.52955301 112.1015625 138.1875 C110.62360464 135.36010235 109.622603 133.56643855 107.0390625 131.6875 C105.1015625 130.1875 105.1015625 130.1875 104.29296875 127.953125 C102.81474159 124.52169934 100.63663208 122.11410842 98.1015625 119.4375 C97.37005981 118.65415283 97.37005981 118.65415283 96.6237793 117.85498047 C71.2648756 91.04102411 34.88370225 72.97962971 -2.25390625 70.84375 C-8.18002824 70.79204992 -14.03911278 71.26715495 -19.91015625 72.06640625 C-21.8984375 72.1875 -21.8984375 72.1875 -24.8984375 71.1875 C-23.87835417 63.72718906 -21.87678179 57.02998788 -19.25390625 49.984375 C-17.78854439 45.97744421 -16.57927556 41.91092213 -15.3984375 37.8125 C-4.60625309 0.45493858 -4.60625309 0.45493858 0 0 Z " fill="#445B8A" transform="translate(329.8984375,121.8125)"/>
<path d="M0 0 C7.52016801 1.37869747 14.7200702 3.69642795 22 6 C23.15886719 6.35964844 24.31773437 6.71929687 25.51171875 7.08984375 C34.01978731 9.73027882 42.51148715 12.42242367 51 15.125 C52.06250977 15.46176758 53.12501953 15.79853516 54.21972656 16.14550781 C59.87755139 17.95165271 65.46098478 19.85629459 71 22 C69.53328433 40.56153965 63.67205523 59.02240601 54 75 C53.525625 76.175625 53.05125 77.35125 52.5625 78.5625 C51.02948189 81.93513983 49.60697621 83.4771198 47 86 C46.71382812 86.76699219 46.42765625 87.53398437 46.1328125 88.32421875 C44.82813705 91.40595214 43.22186172 93.25004173 40.9375 95.6875 C37.35500439 99.52981058 37.35500439 99.52981058 33.8984375 103.484375 C25.16001794 113.76101823 13.46109327 123.10711953 1.5625 129.5625 C0.88316406 129.93503906 0.20382812 130.30757812 -0.49609375 130.69140625 C-1.32238281 131.12324219 -2.14867187 131.55507813 -3 132 C-3.57548584 132.30341309 -4.15097168 132.60682617 -4.74389648 132.91943359 C-30.16980745 146.02843622 -56.02587935 147.68184788 -84 147 C-84 146.34 -84 145.68 -84 145 C-82.02 144.67 -80.04 144.34 -78 144 C-78 143.34 -78 142.68 -78 142 C-77.14341797 141.61521484 -77.14341797 141.61521484 -76.26953125 141.22265625 C-62.84218202 134.88255654 -49.21676778 125.53491575 -39.703125 114.04296875 C-38.54667523 112.65575951 -37.34620378 111.3043284 -36.109375 109.98828125 C-21.34811166 94.26811695 -12.04154515 73.55815539 -5.9453125 53.109375 C-4.93799053 49.79603496 -3.81215308 46.54130862 -2.61328125 43.29296875 C-1.02860259 37.3680874 -0.88275311 31.35248143 -0.9375 25.25390625 C-0.94128662 24.55732407 -0.94507324 23.86074188 -0.94897461 23.14305115 C-0.96105445 20.94946673 -0.97970973 18.75602282 -1 16.5625 C-1.02651763 13.64713957 -1.04649785 10.73184107 -1.0625 7.81640625 C-1.07410156 6.53193604 -1.08570313 5.24746582 -1.09765625 3.92407227 C-1 1 -1 1 0 0 Z " fill="#445C8A" transform="translate(376,284)"/>
<path d="M0 0 C-0.171875 1.77734375 -0.171875 1.77734375 -1 4 C-3.265625 5.75390625 -3.265625 5.75390625 -6.25 7.5625 C-38.07171385 27.91931576 -58.74588932 60.54936325 -67.96875 96.80859375 C-71.24076193 111.89478891 -70.27550497 127.65366652 -70 143 C-77.47814333 141.49014231 -84.62687178 139.30414934 -91.875 136.9375 C-93.00164062 136.57333984 -94.12828125 136.20917969 -95.2890625 135.83398438 C-99.19728341 134.56942247 -103.10307547 133.29897484 -107 132 C-107.38195494 122.67489806 -106.38595976 114.31755996 -104.25 105.25 C-103.99734375 104.09628906 -103.7446875 102.94257813 -103.484375 101.75390625 C-101.96456426 95.08953617 -99.97906628 89.1382116 -97 83 C-95.73169817 79.93882957 -94.48579614 76.8697111 -93.24609375 73.796875 C-92.01128117 71.02532075 -90.72036345 68.50068746 -89 66 C-88.34 66 -87.68 66 -87 66 C-86.74734375 65.29746094 -86.4946875 64.59492188 -86.234375 63.87109375 C-81.44172609 52.72363504 -72.4285317 44.02689553 -64 35.5625 C-62.61216309 34.15979858 -62.61216309 34.15979858 -61.19628906 32.72875977 C-53.38780383 25.01632581 -44.99945066 18.85102195 -35.4375 13.5 C-34.76984619 13.12544678 -34.10219238 12.75089355 -33.41430664 12.36499023 C-10.8182122 0 -10.8182122 0 0 0 Z " fill="#5E7196" transform="translate(285,121)"/>
<path d="M0 0 C6.93 -0.061875 13.86 -0.12375 21 -0.1875 C23.17207031 -0.21481201 25.34414063 -0.24212402 27.58203125 -0.27026367 C29.3255152 -0.27903482 31.06900534 -0.28667727 32.8125 -0.29296875 C34.1437793 -0.3159906 34.1437793 -0.3159906 35.50195312 -0.33947754 C42.13776496 -0.34223633 47.66976004 0.61873108 53.20703125 4.578125 C58.60849325 10.20300514 61.11893572 15.01321363 61.4375 22.9375 C61.23001403 30.16342427 59.07725712 34.9479307 54.25 40.25 C45.51253206 47.95324851 37.00726903 47.49798523 26 47.25 C24.44663758 47.22990643 22.8932501 47.2116607 21.33984375 47.1953125 C17.55876439 47.15495947 13.78120765 47.0766461 10 47 C10 56.9 10 66.8 10 77 C6.7 77 3.4 77 0 77 C0 51.59 0 26.18 0 0 Z " fill="#6F94DE" transform="translate(265,230)"/>
<path d="M0 0 C8.28510638 4.57021277 8.28510638 4.57021277 10 8 C10.203125 10.06640625 10.203125 10.06640625 10.25 12.5625 C10.27578125 13.36816406 10.3015625 14.17382812 10.328125 15.00390625 C10.03518625 17.67871599 9.50780602 19.60820866 8.61865234 22.1171875 C7.04666152 26.73325074 5.86107638 31.37082372 4.7734375 36.12109375 C4.58028961 36.94706558 4.38714172 37.77303741 4.18814087 38.6240387 C3.57975887 41.22761337 2.97693241 43.83242733 2.375 46.4375 C1.76530459 49.06741248 1.15436666 51.69701589 0.54043579 54.32594299 C0.16052354 55.95353957 -0.2168663 57.58172743 -0.59146118 59.21055603 C-1.88793799 64.77587598 -1.88793799 64.77587598 -3 67 C-13.55808656 66.22095672 -13.55808656 66.22095672 -18 64 C-17.52013969 58.43109483 -16.70084819 53.32932432 -15 48 C-16.32 48 -17.64 48 -19 48 C-19.99 52.62 -20.98 57.24 -22 62 C-29.875 62 -29.875 62 -33.9375 60.5 C-34.70964844 60.2215625 -35.48179687 59.943125 -36.27734375 59.65625 C-36.84582031 59.4396875 -37.41429687 59.223125 -38 59 C-36.64659584 49.68539489 -34.07741339 40.55046238 -31.83496094 31.41992188 C-31.0246115 28.1008064 -30.23462662 24.77729377 -29.4453125 21.453125 C-28.94393406 19.40594942 -28.44137884 17.35906159 -27.9375 15.3125 C-27.60649292 13.88949585 -27.60649292 13.88949585 -27.26879883 12.43774414 C-25.83685595 6.74447108 -24.2548982 3.10886425 -20 -1 C-13.59430911 -3.1352303 -6.29607414 -2.2721077 0 0 Z " fill="#A2BBEB" transform="translate(410,41)"/>
<path d="M0 0 C4.32154683 1.9010522 8.1373157 4.29782762 12 7 C12.92619141 7.62455078 12.92619141 7.62455078 13.87109375 8.26171875 C16.62781502 10.48740023 17.07797379 12.36587699 17.8125 15.8125 C17.30948177 23.4961035 12.66778789 30.41642464 9 37 C8.48050781 37.93408691 7.96101562 38.86817383 7.42578125 39.83056641 C4.15251258 45.69326527 0.83660967 51.53066385 -2.49755859 57.35888672 C-4.69541896 61.22246382 -6.85238739 65.10831666 -9 69 C-12.75305445 68.31936595 -15.50567892 67.362366 -18.8125 65.4375 C-19.60269531 64.98246094 -20.39289063 64.52742188 -21.20703125 64.05859375 C-22.09455078 63.53458984 -22.09455078 63.53458984 -23 63 C-22.45801121 59.67960553 -21.74405961 57.21110433 -19.9375 54.375 C-17.75106624 51.21497304 -17.75106624 51.21497304 -18 48 C-19.485 47.505 -19.485 47.505 -21 47 C-21.2475 47.845625 -21.495 48.69125 -21.75 49.5625 C-23.13973627 53.38427474 -24.91120838 56.51868063 -27 60 C-31.49896079 58.3128897 -35.72495365 56.17636499 -40 54 C-38.74548083 46.26644513 -35.85436149 40.57250766 -31.875 33.875 C-30.6937025 31.84338321 -29.5140151 29.81082936 -28.3359375 27.77734375 C-27.76327148 26.79362793 -27.19060547 25.80991211 -26.60058594 24.79638672 C-23.835472 19.96545093 -21.3044488 15.01897321 -18.78125 10.05859375 C-13.99827845 1.84572813 -9.71739009 -1.59152994 0 0 Z " fill="#A2BAEB" transform="translate(506,79)"/>
<path d="M0 0 C6.6725967 4.49473528 11.11926601 10.82409579 15.5 17.4375 C16.13164063 18.34048828 16.76328125 19.24347656 17.4140625 20.17382812 C21.13372739 25.7331974 22.9619585 29.28848953 22 36 C19.53218035 40.9356393 16.61665742 43.27197516 12 46 C12.74798405 49.92046813 14.48748927 52.16004328 16.94140625 55.21875 C18 57 18 57 18 61 C15.953125 62.95703125 15.953125 62.95703125 13.25 64.8125 C11.92742187 65.75029297 11.92742187 65.75029297 10.578125 66.70703125 C8 68 8 68 5.95703125 68.109375 C2.82556491 66.33425237 1.29106593 63.42026261 -0.5625 60.4375 C-1.44925417 59.05908015 -2.33731923 57.6815029 -3.2265625 56.3046875 C-3.68321289 55.59151367 -4.13986328 54.87833984 -4.61035156 54.14355469 C-6.8189466 50.73676192 -9.12618639 47.40009968 -11.4375 44.0625 C-12.351733 42.73839895 -13.265794 41.41417914 -14.1796875 40.08984375 C-14.63827148 39.42581543 -15.09685547 38.76178711 -15.56933594 38.07763672 C-17.07550863 35.89034497 -18.5737106 33.69775635 -20.0703125 31.50390625 C-20.57119385 30.77099365 -21.0720752 30.03808105 -21.58813477 29.28295898 C-22.55116857 27.87341174 -23.51266345 26.46281151 -24.47241211 25.05102539 C-26.19773666 22.52994022 -27.83457047 20.16542953 -30 18 C-29.65226565 14.48348745 -28.96306533 13.96872831 -26.12109375 11.5625 C-24.90263724 10.69496564 -23.67416722 9.84137169 -22.4375 9 C-21.79997803 8.55865723 -21.16245605 8.11731445 -20.50561523 7.66259766 C-7.21151488 -1.41654757 -7.21151488 -1.41654757 0 0 Z " fill="#A2BBEB" transform="translate(53,102)"/>
<path d="M0 0 C1.5912689 4.873261 2.21192221 8.80790596 2 14 C0.0636296 14.50435694 -1.87414146 15.00333874 -3.8125 15.5 C-4.89144531 15.7784375 -5.97039062 16.056875 -7.08203125 16.34375 C-10 17 -10 17 -13 17 C-12.67 20.3 -12.34 23.6 -12 27 C-10.515 26.7525 -10.515 26.7525 -9 26.5 C-4.97267058 25.91525483 -1.06525377 25.92867976 3 26 C4.75747614 30.50353262 5.19294408 34.17639811 5 39 C0.46298506 40.45184478 -3.18061476 41.23509196 -8 41 C-7.67 44.63 -7.34 48.26 -7 52 C-4.463125 51.505 -4.463125 51.505 -1.875 51 C2.14688852 50.26308623 5.89668088 49.77819897 10 50 C11.33583899 54.84241633 12.25328119 58.93437617 12 64 C5.56392757 65.34949906 -0.89203391 66.52713087 -7.375 67.625 C-8.15987793 67.76010986 -8.94475586 67.89521973 -9.75341797 68.03442383 C-10.50252441 68.15970459 -11.25163086 68.28498535 -12.0234375 68.4140625 C-12.69294434 68.5270166 -13.36245117 68.6399707 -14.05224609 68.75634766 C-16 69 -16 69 -20 69 C-22.824645 55.87237519 -25.50576322 42.74717306 -27.65527344 29.48999023 C-28.27334169 25.76046452 -28.90623954 22.28095007 -30.10546875 18.6875 C-31.05675453 15.82948859 -31.20601309 13.62248444 -31.125 10.625 C-31.10695312 9.75101563 -31.08890625 8.87703125 -31.0703125 7.9765625 C-31.04710937 7.32429688 -31.02390625 6.67203125 -31 6 C-25.32752304 4.28200561 -19.62412491 3.02793073 -13.8125 1.875 C-12.92369141 1.69324219 -12.03488281 1.51148438 -11.11914062 1.32421875 C-10.26126953 1.15277344 -9.40339844 0.98132812 -8.51953125 0.8046875 C-7.36094604 0.57241455 -7.36094604 0.57241455 -6.17895508 0.33544922 C-4 0 -4 0 0 0 Z " fill="#A1B8E8" transform="translate(222,33)"/>
<path d="M0 0 C-0.00112793 0.96301025 -0.00225586 1.92602051 -0.00341797 2.91821289 C0.00027455 6.51759627 0.04325843 10.11565504 0.09765625 13.71459961 C0.11573845 15.26724675 0.12339891 16.82005378 0.12011719 18.37280273 C-0.28882376 28.42638832 -0.28882376 28.42638832 3.765625 37.1796875 C4.82804159 38.13750812 5.9055693 39.07892953 7 40 C8.56240939 42.00483924 10.10553841 44.02491811 11.625 46.0625 C12.35976562 47.04347656 13.09453125 48.02445313 13.8515625 49.03515625 C20 57.52 20 57.52 20 61 C18.25531628 61.70088156 16.50398839 62.38524009 14.75 63.0625 C13.77546875 63.44535156 12.8009375 63.82820313 11.796875 64.22265625 C7.68528943 65.3654014 7.68528943 65.3654014 5 64 C2.64630579 60.84194699 0.92221852 57.45125597 -1 54 C-0.505 60.93 -0.505 60.93 0 68 C-11.625 72 -11.625 72 -15 72 C-15.02505615 71.33057373 -15.0501123 70.66114746 -15.07592773 69.97143555 C-15.19347076 66.87666906 -15.31546486 63.78209248 -15.4375 60.6875 C-15.47681641 59.63498047 -15.51613281 58.58246094 -15.55664062 57.49804688 C-15.68333573 54.33066927 -15.8378563 51.16574481 -16 48 C-16.03883301 46.99138916 -16.07766602 45.98277832 -16.11767578 44.94360352 C-16.44593646 39.26603364 -16.94889672 35.84569774 -21 31.5625 C-21.80308594 30.66660156 -22.60617188 29.77070312 -23.43359375 28.84765625 C-24.28050781 27.90792969 -25.12742188 26.96820313 -26 26 C-27.7360946 23.8690137 -29.40559586 21.69286327 -31.0625 19.5 C-31.81660156 18.5203125 -32.57070312 17.540625 -33.34765625 16.53125 C-35 14 -35 14 -35 11 C-33.4447088 10.29634398 -31.88035173 9.61270622 -30.3125 8.9375 C-29.44238281 8.55464844 -28.57226562 8.17179687 -27.67578125 7.77734375 C-24.5689708 6.8747813 -23.01596725 6.833826 -20 8 C-17.84895878 10.80963162 -16.57508797 13.80482155 -15 17 C-15 12.71 -15 8.42 -15 4 C-5.33203125 -0.125 -5.33203125 -0.125 0 0 Z " fill="#A2BAEA" transform="translate(159,49)"/>
<path d="M0 0 C1.27875 0.00257812 2.5575 0.00515625 3.875 0.0078125 C5.15375 0.00523438 6.4325 0.00265625 7.75 0 C10.875 0.1328125 10.875 0.1328125 11.875 1.1328125 C12.02684319 2.66568821 12.11306879 4.20513906 12.17211914 5.74438477 C12.2320681 7.21579674 12.2320681 7.21579674 12.29322815 8.7169342 C12.33181442 9.7835881 12.3704007 10.850242 12.41015625 11.94921875 C12.45313339 13.03541 12.49611053 14.12160126 12.54039001 15.2407074 C12.67723466 18.72541838 12.80743342 22.21034257 12.9375 25.6953125 C13.02886073 28.05144924 13.12065186 30.40756934 13.21289062 32.76367188 C13.43859663 38.55320374 13.65834083 44.3429353 13.875 50.1328125 C19.485 50.4628125 25.095 50.7928125 30.875 51.1328125 C30.875 55.4228125 30.875 59.7128125 30.875 64.1328125 C26.42738117 64.87408231 22.81243229 65.25156218 18.3828125 65.23046875 C16.58457031 65.22563477 16.58457031 65.22563477 14.75 65.22070312 C12.89375 65.20813477 12.89375 65.20813477 11 65.1953125 C9.73929687 65.19080078 8.47859375 65.18628906 7.1796875 65.18164062 C4.07807614 65.1698921 0.97656275 65.15346417 -2.125 65.1328125 C-3.30629285 48.11402697 -4.32085192 31.13536338 -4.3125 14.0703125 C-4.31314453 12.7817334 -4.31378906 11.4931543 -4.31445312 10.16552734 C-4.25432891 0.18080898 -4.25432891 0.18080898 0 0 Z " fill="#A1B9E9" transform="translate(260.125,27.8671875)"/>
<path d="M0 0 C5.28 0 10.56 0 16 0 C16.21363504 10.04084667 15.50307013 19.56792462 14.29101562 29.51171875 C13.76100539 34.04348411 13.32136768 38.58436323 12.875 43.125 C12.78750488 44.00881348 12.70000977 44.89262695 12.60986328 45.80322266 C12.40565514 47.86872432 12.202684 49.93434822 12 52 C13.07121094 51.98839844 14.14242188 51.97679687 15.24609375 51.96484375 C16.64322743 51.95546701 18.04036299 51.94636669 19.4375 51.9375 C20.14455078 51.92912109 20.85160156 51.92074219 21.58007812 51.91210938 C23.38693559 51.90346412 25.19387603 51.94779989 27 52 C28 53 28 53 28.1328125 54.92578125 C28.13023437 55.71339844 28.12765625 56.50101563 28.125 57.3125 C28.12886719 58.48232422 28.12886719 58.48232422 28.1328125 59.67578125 C28.00499912 61.91251539 27.61913869 63.85266979 27 66 C16.14700916 66.28435784 5.74631163 65.47317858 -5 64 C-5.05565077 61.93782994 -5.0935087 59.87518045 -5.125 57.8125 C-5.14820313 56.66394531 -5.17140625 55.51539063 -5.1953125 54.33203125 C-5.13299785 50.89101602 -4.65653656 47.61246628 -4.09375 44.21875 C-2.66346968 35.41941675 -2.05208659 26.56953565 -1.375 17.6875 C-1.24002677 15.96415792 -1.10461302 14.24085028 -0.96875 12.51757812 C-0.63995344 8.34547052 -0.32016478 4.17281425 0 0 Z " fill="#A2BAEA" transform="translate(321,29)"/>
<path d="M0 0 C4.41187833 -0.09234164 8.82034342 -0.17181085 13.23242188 -0.21972656 C14.7299339 -0.23971919 16.22736908 -0.26692299 17.72460938 -0.30175781 C33.59443721 -0.66147391 33.59443721 -0.66147391 40 4 C43.67489371 8.4317035 43.49566788 12.5700674 43.359375 18.1171875 C42.88095412 21.95495496 41.56578179 24.140986 39 27 C38.525625 27.598125 38.05125 28.19625 37.5625 28.8125 C33.70929369 31.7409368 28.33757618 31.11661554 23.73046875 31.09765625 C22.48418701 31.09515869 21.23790527 31.09266113 19.95385742 31.09008789 C18.38095947 31.08098389 16.80806152 31.07187988 15.1875 31.0625 C7.6696875 31.0315625 7.6696875 31.0315625 0 31 C0 20.77 0 10.54 0 0 Z " fill="#040609" transform="translate(274,238)"/>
<path d="M0 0 C3.65617915 0.54373946 5.05290258 2.6904614 7.47558594 5.36816406 C8.46558594 6.02816406 9.45558594 6.68816406 10.47558594 7.36816406 C9.94121439 11.74529571 8.44110296 14.1216252 5.72558594 17.55566406 C4.90599609 18.610194 4.08841498 19.66628712 3.27246094 20.72363281 C2.82580078 21.30032715 2.37914062 21.87702148 1.91894531 22.47119141 C-0.80334865 26.04903716 -3.40531948 29.71449275 -6.02441406 33.36816406 C-10.49083883 39.58958058 -15.02840417 45.73557771 -19.71972656 51.79003906 C-21.64170479 54.53572225 -23.0985738 57.33936052 -24.52441406 60.36816406 C-28.74931008 59.8353619 -31.06522122 58.49138207 -34.33691406 55.80566406 C-35.52220703 54.84466797 -35.52220703 54.84466797 -36.73144531 53.86425781 C-37.323125 53.37054688 -37.91480469 52.87683594 -38.52441406 52.36816406 C-37.90990365 49.15627533 -36.82784578 47.08901557 -34.89941406 44.46191406 C-34.36251953 43.72457031 -33.825625 42.98722656 -33.27246094 42.22753906 C-32.69560547 41.44894531 -32.11875 40.67035156 -31.52441406 39.86816406 C-30.93208984 39.05863281 -30.33976563 38.24910156 -29.72949219 37.41503906 C-25.83848783 32.10873996 -21.90550258 26.83448012 -17.91503906 21.60253906 C-15.95544365 18.99542517 -14.10435371 16.32267716 -12.25878906 13.63378906 C-11.39543945 12.39242187 -11.39543945 12.39242187 -10.51464844 11.12597656 C-9.37192767 9.47922745 -8.24251169 7.82314984 -7.12792969 6.15722656 C-6.34192383 5.031875 -6.34192383 5.031875 -5.54003906 3.88378906 C-5.07887695 3.20606445 -4.61771484 2.52833984 -4.14257812 1.83007812 C-2.52441406 0.36816406 -2.52441406 0.36816406 0 0 Z " fill="#A0B8E8" transform="translate(555.5244140625,110.6318359375)"/>
<path d="M0 0 C0.67154933 1.28913487 1.33708859 2.58140204 2 3.875 C2.37125 4.59429687 2.7425 5.31359375 3.125 6.0546875 C4 8 4 8 4 10 C4.66 10 5.32 10 6 10 C7.94085456 13.85248616 9.87707795 17.70728215 11.8125 21.5625 C12.35970703 22.64853516 12.90691406 23.73457031 13.47070312 24.85351562 C16.1433255 30.18256266 18.69459352 35.50357358 21 41 C22.30631507 43.63838846 23.65527185 46.25042041 25.01171875 48.86328125 C26 51 26 51 26 53 C26.66 53 27.32 53 28 53 C28 54.65 28 56.3 28 58 C26.4447088 58.70365602 24.88035173 59.38729378 23.3125 60.0625 C22.44238281 60.44535156 21.57226562 60.82820313 20.67578125 61.22265625 C17.46233087 62.15619877 16.13282594 62.19018857 13 61 C11.44794124 58.68855412 10.30314256 56.63289268 9.14453125 54.1328125 C8.62900192 53.07875465 8.62900192 53.07875465 8.10305786 52.00340271 C6.98948497 49.71828353 5.90110922 47.42210118 4.8125 45.125 C3.6797862 42.78357407 2.54120426 40.44505936 1.40254211 38.10652161 C0.65105883 36.56152105 -0.09822781 35.01545009 -0.84529114 33.4683075 C-4.1459887 26.64222186 -7.65794944 19.94152658 -11.30737305 13.29541016 C-14 8.31074188 -14 8.31074188 -14 5 C-12.75264433 4.3490741 -11.50198168 3.70448331 -10.25 3.0625 C-9.55390625 2.70285156 -8.8578125 2.34320313 -8.140625 1.97265625 C-5.41232415 0.7329721 -3.00198386 0 0 0 Z " fill="#A2BBEB" transform="translate(95,75)"/>
<path d="M0 0 C0 3.10551666 -0.5393715 4.35261084 -2 7 C-2.66 7 -3.32 7 -4 7 C-4 7.66 -4 8.32 -4 9 C-4.66 9 -5.32 9 -6 9 C-6 9.66 -6 10.32 -6 11 C-7.13442443 12.20317743 -8.28182158 13.39594613 -9.48046875 14.53515625 C-10.47219662 15.49119212 -11.43547872 16.47790358 -12.36328125 17.49609375 C-28.22557741 34.58802527 -52.00565148 46.5386705 -74.3125 52.4921875 C-76.01802091 52.86023694 -76.01802091 52.86023694 -77 54 C-78.51928038 54.07179964 -80.04167482 54.08392007 -81.5625 54.0625 C-82.38878906 54.05347656 -83.21507812 54.04445313 -84.06640625 54.03515625 C-84.70449219 54.02355469 -85.34257812 54.01195312 -86 54 C-86 53.34 -86 52.68 -86 52 C-85.34 52 -84.68 52 -84 52 C-84 51.34 -84 50.68 -84 50 C-83.42894531 49.74347656 -82.85789062 49.48695313 -82.26953125 49.22265625 C-68.42553211 42.68582359 -54.54503209 33.05688264 -45 21 C-44.01 21.33 -43.02 21.66 -42 22 C-51.67658454 32.53249865 -63.03420113 41.21094224 -75 49 C-45.61689343 43.46906229 -17.95291438 23.50443903 0 0 Z " fill="#87AAEF" transform="translate(382,376)"/>
<path d="M0 0 C0.66 0 1.32 0 2 0 C3.36396462 2.45334555 4.71634169 4.91191234 6.0625 7.375 C6.45244141 8.07367188 6.84238281 8.77234375 7.24414062 9.4921875 C8.22415178 11.29610184 9.11875071 13.14583482 10 15 C9.67 15.66 9.34 16.32 9 17 C8.54625 16.195625 8.0925 15.39125 7.625 14.5625 C6.25274335 11.91143428 6.25274335 11.91143428 4 11 C12.99766984 40.32894305 28.14302393 65.20186674 52 85 C52.99 85.495 52.99 85.495 54 86 C54 86.66 54 87.32 54 88 C55.11375 88.37125 55.11375 88.37125 56.25 88.75 C59.20124062 90.09147301 60.84814974 91.60905526 63 94 C38.9739181 84.93276561 20.64758618 58.52785153 9.94677734 36.16455078 C7.07943273 29.60914145 4.9157271 22.74908217 2.74267578 15.93847656 C1.97692468 13.72672118 1.97692468 13.72672118 0 11 C-0.1953125 8.30078125 -0.1953125 8.30078125 -0.125 5.3125 C-0.10695312 4.31863281 -0.08890625 3.32476562 -0.0703125 2.30078125 C-0.04710937 1.54152344 -0.02390625 0.78226562 0 0 Z " fill="#87A8E9" transform="translate(139,274)"/>
<path d="M0 0 C6.88691546 2.29563849 12.10579113 6.75620478 17 12 C17.63421875 12.65226563 18.2684375 13.30453125 18.921875 13.9765625 C34.00287108 29.96669664 45.06788125 49.61903381 51.84375 70.4609375 C52.90205546 73.88759023 52.90205546 73.88759023 54.1484375 76.64453125 C55.12495686 79.34563754 55.20130196 81.45117637 55.125 84.3125 C55.10695313 85.19550781 55.08890625 86.07851563 55.0703125 86.98828125 C55.04710937 87.65214844 55.02390625 88.31601562 55 89 C51.64534784 85.98588488 49.84515459 83.06966312 47.9375 79 C46.22141525 75.35844085 44.53837917 72.13342948 42 69 C42.33 68.34 42.66 67.68 43 67 C45.31 70.3 47.62 73.6 50 77 C47.14938788 56.72898049 34.78398486 37.53550478 22 22 C21.36058472 21.20722656 21.36058472 21.20722656 20.70825195 20.3984375 C18.53937356 17.73557533 16.43226944 15.32098883 13.6875 13.25 C12.800625 12.5075 11.91375 11.765 11 11 C11 10.34 11 9.68 11 9 C10.12601562 8.59974609 10.12601562 8.59974609 9.234375 8.19140625 C6.95523863 6.97613248 5.19537168 5.62930828 3.25 3.9375 C2.63640625 3.41027344 2.0228125 2.88304687 1.390625 2.33984375 C0.93171875 1.89769531 0.4728125 1.45554688 0 1 C0 0.67 0 0.34 0 0 Z " fill="#819ED7" transform="translate(396,185)"/>
<path d="M0 0 C6.88691546 2.29563849 12.10579113 6.75620478 17 12 C17.63421875 12.65226563 18.2684375 13.30453125 18.921875 13.9765625 C23.82070864 19.1707159 28.01120555 24.62923442 32.0625 30.5 C32.55186035 31.20680908 33.0412207 31.91361816 33.54541016 32.6418457 C37 37.74091919 37 37.74091919 37 40 C36.34 40 35.68 40 35 40 C34.00634211 38.58829154 33.02164768 37.16888607 32.09716797 35.7109375 C27.02719717 27.8047614 21.04617153 19.18827679 13.6875 13.25 C12.800625 12.5075 11.91375 11.765 11 11 C11 10.34 11 9.68 11 9 C10.12601562 8.59974609 10.12601562 8.59974609 9.234375 8.19140625 C6.95523863 6.97613248 5.19537168 5.62930828 3.25 3.9375 C2.63640625 3.41027344 2.0228125 2.88304687 1.390625 2.33984375 C0.93171875 1.89769531 0.4728125 1.45554688 0 1 C0 0.67 0 0.34 0 0 Z " fill="#83A6EA" transform="translate(396,185)"/>
<path d="M0 0 C1.32 0 2.64 0 4 0 C3.71640113 1.4391134 3.42278601 2.87625518 3.125 4.3125 C2.96257812 5.11300781 2.80015625 5.91351563 2.6328125 6.73828125 C2 9 2 9 0 12 C-0.66 12 -1.32 12 -2 12 C-2.66 14.31 -3.32 16.62 -4 19 C-5.65 18.67 -7.3 18.34 -9 18 C-8.09476787 13.7997229 -6.09717906 10.42033539 -3.9375 6.75 C-3.56044922 6.1003125 -3.18339844 5.450625 -2.79492188 4.78125 C-1.86765885 3.18494909 -0.93441544 1.59212471 0 0 Z " fill="#1A1E26" transform="translate(502,96)"/>
<path d="M0 0 C0.99 0 1.98 0 3 0 C5.0869757 2.15094431 6.61202586 4.74676833 8.25 7.25 C8.72179688 7.93191406 9.19359375 8.61382812 9.6796875 9.31640625 C10.12054688 9.98027344 10.56140625 10.64414063 11.015625 11.328125 C11.42071289 11.9355957 11.82580078 12.54306641 12.24316406 13.16894531 C13.2015746 15.48768047 12.81861477 16.67738877 12 19 C7.69826046 17.47708531 5.66130748 14.24209693 3.1875 10.625 C2.55811523 9.75875 2.55811523 9.75875 1.91601562 8.875 C-1.0576029 4.58358348 -1.0576029 4.58358348 -0.76171875 1.5859375 C-0.51035156 1.06257813 -0.25898437 0.53921875 0 0 Z " fill="#181C24" transform="translate(45,118)"/>
<path d="M0 0 C1.32 0 2.64 0 4 0 C3.42978625 6.95660771 1.98697306 13.31427305 0 20 C-1.32 20 -2.64 20 -4 20 C-3.34034961 13.13963599 -1.7637236 6.65556077 0 0 Z " fill="#0E1115" transform="translate(399,55)"/>
<path d="M0 0 C4.31734263 0.4448784 6.50935183 3.24694041 9.3125 6.25 C12.41698763 9.48460028 15.45665138 12.54227369 19.1875 15.0625 C20.115625 15.701875 21.04375 16.34125 22 17 C22 17.66 22 18.32 22 19 C22.7425 19.2475 23.485 19.495 24.25 19.75 C27.20124062 21.09147301 28.84814974 22.60905526 31 25 C23.10312426 22.01978776 16.93149255 17.13716214 10.75 11.5 C10.25491943 11.04955322 9.75983887 10.59910645 9.24975586 10.13500977 C5.84942974 6.96666691 2.90893392 3.60962603 0 0 Z " fill="#708ECA" transform="translate(171,343)"/>
<path d="M0 0 C13.55246419 4.71497388 25.23810246 17.99269163 35 28 C34.67 28.66 34.34 29.32 34 30 C33.26136719 29.23816406 32.52273438 28.47632813 31.76171875 27.69140625 C22.63201017 18.36141156 13.31194376 10.09084225 2.01953125 3.41015625 C1.35308594 2.94480469 0.68664062 2.47945312 0 2 C0 1.34 0 0.68 0 0 Z " fill="#8497BE" transform="translate(396,213)"/>
<path d="M0 0 C0 0.66 0 1.32 0 2 C-1.32 2.33 -2.64 2.66 -4 3 C-4 2.34 -4 1.68 -4 1 C-14.88841863 4.36203803 -25.19472531 8.23572041 -35.42578125 13.265625 C-38.25757452 14.63974108 -41.05968004 15.88529456 -44 17 C-40.43983481 12.77948158 -36.15908756 10.83973047 -31.25 8.5625 C-30.4132373 8.17143066 -29.57647461 7.78036133 -28.71435547 7.37744141 C-7.56870094 -2.27348811 -7.56870094 -2.27348811 0 0 Z " fill="#99B7F0" transform="translate(289,120)"/>
<path d="M0 0 C1.485 0.495 1.485 0.495 3 1 C-2.83023386 7.34593022 -9.03585496 12.78174767 -15.875 18 C-16.61226318 18.56356201 -17.34952637 19.12712402 -18.10913086 19.70776367 C-24.79291376 24.73609204 -24.79291376 24.73609204 -28 26 C-28.99 25.67 -29.98 25.34 -31 25 C-30.32195312 24.5875 -29.64390625 24.175 -28.9453125 23.75 C-20.2277827 18.34078484 -12.07361619 12.47782283 -5 5 C-2.5 2.5 -2.5 2.5 0 0 Z " fill="#7F92B7" transform="translate(337,397)"/>
<path d="M0 0 C7.65178571 0.99107143 7.65178571 0.99107143 11 3 C7.52176885 4.15941038 5.54104422 3.70820884 2 3 C2.01047363 3.91700684 2.02094727 4.83401367 2.03173828 5.77880859 C2.06610894 9.22675156 2.09103794 12.67450874 2.10986328 16.12255859 C2.11983431 17.60631204 2.13341605 19.09004629 2.15087891 20.57373047 C2.24636112 28.9031494 2.19160361 36.88834875 0 45 C-1.27903228 41.58924724 -0.77420437 38.67845868 -0.26443481 35.13671875 C0.15303292 31.76344454 0.12338555 28.39255216 0.09765625 25 C0.0962413 24.2788501 0.09482635 23.5577002 0.09336853 22.81469727 C0.08783381 20.54308676 0.07529423 18.27158 0.0625 16 C0.05747654 14.44661602 0.05291512 12.89323048 0.04882812 11.33984375 C0.03788589 7.55985672 0.0206676 3.77994586 0 0 Z " fill="#121A2A" transform="translate(374,282)"/>
<path d="M0 0 C0.66 0.33 1.32 0.66 2 1 C-5.67091193 9.40408752 -13.31907206 17.61921104 -22 25 C-22 22 -22 22 -20.171875 19.9140625 C-19.37265625 19.15867188 -18.5734375 18.40328125 -17.75 17.625 C-15.3055975 15.26803336 -13.03674657 13.04676836 -10.9375 10.375 C-8.02471367 6.80448772 -4.49992643 3.9793424 -1 1 C-0.67 0.67 -0.34 0.34 0 0 Z " fill="#6783B6" transform="translate(194,146)"/>
<path d="M0 0 C0 3.10551666 -0.5393715 4.35261084 -2 7 C-2.66 7 -3.32 7 -4 7 C-4 7.66 -4 8.32 -4 9 C-4.66 9 -5.32 9 -6 9 C-6 9.66 -6 10.32 -6 11 C-7.62833841 12.72702558 -9.28727298 14.36024631 -11 16 C-12.16778227 17.18640294 -13.33440395 18.37394911 -14.5 19.5625 C-21.95373908 27 -21.95373908 27 -25 27 C-23.63854692 23.86391655 -22.20488211 22.0854655 -19.5625 19.9375 C-15.97099544 16.89752448 -12.57760566 13.69925066 -9.25 10.375 C-8.34765625 9.47523438 -7.4453125 8.57546875 -6.515625 7.6484375 C-4.18590081 5.19571545 -2.06700084 2.67551043 0 0 Z " fill="#7A98D3" transform="translate(382,376)"/>
<path d="M0 0 C-1.33221125 3.12916658 -2.51855288 4.66602124 -5.4140625 6.4375 C-6.09339844 6.85773438 -6.77273438 7.27796875 -7.47265625 7.7109375 C-8.18292969 8.13632812 -8.89320313 8.56171875 -9.625 9 C-10.31207031 9.42539062 -10.99914062 9.85078125 -11.70703125 10.2890625 C-24.31417753 18 -24.31417753 18 -28 18 C-28 17.34 -28 16.68 -28 16 C-26.56720703 15.27296875 -26.56720703 15.27296875 -25.10546875 14.53125 C-17.61417523 10.66753447 -10.74455277 6.65346404 -4.07421875 1.46875 C-2 0 -2 0 0 0 Z " fill="#83A7ED" transform="translate(357,402)"/>
<path d="M0 0 C0.66 0.33 1.32 0.66 2 1 C-5.26 8.26 -12.52 15.52 -20 23 C-20.66 22.67 -21.32 22.34 -22 22 C-15.05325513 14.1711288 -8.16487772 6.57173085 0 0 Z " fill="#181C23" transform="translate(269,134)"/>
<path d="M0 0 C6.43100207 0.44381746 11.18049345 2.78654106 16.8125 5.8125 C18.09930664 6.47088867 18.09930664 6.47088867 19.41210938 7.14257812 C20.23130859 7.57634766 21.05050781 8.01011719 21.89453125 8.45703125 C23.00598511 9.0444812 23.00598511 9.0444812 24.13989258 9.64379883 C26.28129648 11.20509278 27.01815225 12.5684355 28 15 C23.10893535 12.57102248 18.27719263 10.02931944 13.4375 7.5 C12.47908203 7.00113281 11.52066406 6.50226563 10.53320312 5.98828125 C9.61345703 5.50746094 8.69371094 5.02664062 7.74609375 4.53125 C6.90747803 4.09361328 6.0688623 3.65597656 5.20483398 3.20507812 C3 2 3 2 0 0 Z " fill="#14213C" transform="translate(362,130)"/>
<path d="M0 0 C0.66 0.33 1.32 0.66 2 1 C-3.36814346 9.96523959 -8.58197723 18.54053576 -16 26 C-16 21.90278569 -13.85066008 19.97196703 -11.375 16.9375 C-7.08694147 11.54434232 -3.35096985 6.03447009 0 0 Z " fill="#7B8EB3" transform="translate(357,370)"/>
<path d="M0 0 C3 1 3 1 4.16674805 2.77832031 C4.70875854 3.91672363 4.70875854 3.91672363 5.26171875 5.078125 C5.85629883 6.32529297 5.85629883 6.32529297 6.46289062 7.59765625 C6.86701172 8.47292969 7.27113281 9.34820312 7.6875 10.25 C8.10322266 11.10980469 8.51894531 11.96960938 8.94726562 12.85546875 C10.96345973 17.15271005 12.25382657 20.17889147 12 25 C10.36844188 22.55266282 9.12117831 20.29789593 7.87109375 17.65625 C7.47599609 16.82222656 7.08089844 15.98820313 6.67382812 15.12890625 C6.26583984 14.26136719 5.85785156 13.39382812 5.4375 12.5 C5.02564453 11.63246094 4.61378906 10.76492187 4.18945312 9.87109375 C1.13188486 3.39565457 1.13188486 3.39565457 0 0 Z " fill="#87A9EF" transform="translate(432,225)"/>
<path d="M0 0 C7.83972407 2.61324136 14.44675837 8.17013756 19 15 C16.21788056 14.62403791 14.4120716 14.32681541 12.1875 12.5625 C11 11 11 11 11 9 C10.12601562 8.59974609 10.12601562 8.59974609 9.234375 8.19140625 C6.95523863 6.97613248 5.19537168 5.62930828 3.25 3.9375 C2.63640625 3.41027344 2.0228125 2.88304687 1.390625 2.33984375 C0.93171875 1.89769531 0.4728125 1.45554688 0 1 C0 0.67 0 0.34 0 0 Z " fill="#7393D2" transform="translate(396,185)"/>
<path d="M0 0 C0.66 0 1.32 0 2 0 C2.69710731 1.28650706 3.38242876 2.57940665 4.0625 3.875 C4.63677734 4.95394531 4.63677734 4.95394531 5.22265625 6.0546875 C5.47917969 6.69664062 5.73570312 7.33859375 6 8 C5.67 8.66 5.34 9.32 5 10 C4.34 9.67 3.68 9.34 3 9 C3 10.65 3 12.3 3 14 C1.51171875 12.85546875 1.51171875 12.85546875 0 11 C-0.29296875 8.30078125 -0.29296875 8.30078125 -0.1875 5.3125 C-0.16042969 4.31863281 -0.13335937 3.32476562 -0.10546875 2.30078125 C-0.07066406 1.54152344 -0.03585938 0.78226562 0 0 Z " fill="#7896D0" transform="translate(139,274)"/>
<path d="M0 0 C2.42869909 3.64304864 2.25675675 6.30722339 2.1953125 10.51171875 C2.1924826 11.23994339 2.18965271 11.96816803 2.18673706 12.71846008 C2.17555257 15.04164137 2.15045166 17.36443547 2.125 19.6875 C2.11496794 21.2636663 2.10584248 22.83983865 2.09765625 24.41601562 C2.07561896 28.27749267 2.04110141 32.13868071 2 36 C1.01 36 0.02 36 -1 36 C-1.33 34.68 -1.66 33.36 -2 32 C-1.01 32.33 -0.02 32.66 1 33 C0.67 22.11 0.34 11.22 0 0 Z " fill="#1E2B44" transform="translate(451,241)"/>
<path d="M0 0 C0.66 0.33 1.32 0.66 2 1 C-3.94 6.94 -9.88 12.88 -16 19 C-16 14.07240655 -12.31920971 11.40001444 -9 8 C-6.39339425 5.5914226 -3.71510115 3.28465829 -1 1 C-0.67 0.67 -0.34 0.34 0 0 Z " fill="#9CB9EF" transform="translate(230,146)"/>
<path d="M0 0 C0 0.66 0 1.32 0 2 C6.6 2 13.2 2 20 2 C20 2.33 20 2.66 20 3 C12.08 3 4.16 3 -4 3 C-4 2.34 -4 1.68 -4 1 C-2 0 -2 0 0 0 Z " fill="#4867A4" transform="translate(296,428)"/>
<path d="M0 0 C0.66 0.33 1.32 0.66 2 1 C1.67 1.33 1.34 1.66 1 2 C2.32 2.66 3.64 3.32 5 4 C4 5 4 5 1.93359375 5.09765625 C1.10988281 5.08605469 0.28617187 5.07445312 -0.5625 5.0625 C-1.38878906 5.05347656 -2.21507812 5.04445313 -3.06640625 5.03515625 C-3.70449219 5.02355469 -4.34257812 5.01195312 -5 5 C-5 4.34 -5 3.68 -5 3 C-4.34 3 -3.68 3 -3 3 C-3 2.34 -3 1.68 -3 1 C-2.01 0.67 -1.02 0.34 0 0 Z " fill="#7392D1" transform="translate(301,425)"/>
<path d="M0 0 C1.32 0.33 2.64 0.66 4 1 C3.67 1.33 3.34 1.66 3 2 C3.66 2.33 4.32 2.66 5 3 C5 3.66 5 4.32 5 5 C2.03 5 -0.94 5 -4 5 C-2.68 3.35 -1.36 1.7 0 0 Z " fill="#90AADF" transform="translate(304,423)"/>
<path d="M0 0 C1 4 1 4 0 7 C2.97 7.33 5.94 7.66 9 8 C9 8.33 9 8.66 9 9 C5.37 9 1.74 9 -2 9 C-1.34 6.03 -0.68 3.06 0 0 Z " fill="#020812" transform="translate(305,186)"/>
<path d="M0 0 C3.63 0 7.26 0 11 0 C9 3 9 3 5.875 3.6875 C4.92625 3.790625 3.9775 3.89375 3 4 C2.01 2.68 1.02 1.36 0 0 Z " fill="#7992C1" transform="translate(286,117)"/>
<path d="M0 0 C1.32 0.33 2.64 0.66 4 1 C3.67 2.65 3.34 4.3 3 6 C1.33333333 6 -0.33333333 6 -2 6 C-1.34 4.02 -0.68 2.04 0 0 Z " fill="#1F232D" transform="translate(485,126)"/>
<path d="M0 0 C0.99 0.33 1.98 0.66 3 1 C1.71372289 2.17260611 0.42080217 3.3379283 -0.875 4.5 C-1.59429687 5.1496875 -2.31359375 5.799375 -3.0546875 6.46875 C-5 8 -5 8 -7 8 C-5.51218185 4.21282653 -3.38011591 2.22592999 0 0 Z " fill="#7A9CE0" transform="translate(364,395)"/>
<path d="M0 0 C0.99 0 1.98 0 3 0 C4.60546875 1.75 4.60546875 1.75 6.1875 4 C6.71730469 4.7425 7.24710937 5.485 7.79296875 6.25 C8.19128906 6.8275 8.58960938 7.405 9 8 C4.19741373 7.17904508 2.84138848 4.78851797 0 1 C0 0.67 0 0.34 0 0 Z " fill="#7B9DDE" transform="translate(413,200)"/>
<path d="M0 0 C0.66 0.33 1.32 0.66 2 1 C0.76055724 1.86941494 -0.49207059 2.72005457 -1.75 3.5625 C-2.44609375 4.03816406 -3.1421875 4.51382813 -3.859375 5.00390625 C-6 6 -6 6 -8.265625 5.65234375 C-8.83796875 5.43707031 -9.4103125 5.22179687 -10 5 C-8.38007835 4.13624104 -6.75388139 3.28424146 -5.125 2.4375 C-4.22007812 1.96183594 -3.31515625 1.48617187 -2.3828125 0.99609375 C-1.20332031 0.50302734 -1.20332031 0.50302734 0 0 Z " fill="#4F648B" transform="translate(226,127)"/>
<path d="M0 0 C0.66 0.33 1.32 0.66 2 1 C2 4.3 2 7.6 2 11 C0.68 9.68 -0.64 8.36 -2 7 C-1.67 6.34 -1.34 5.68 -1 5 C-0.34 5.33 0.32 5.66 1 6 C0.67 4.02 0.34 2.04 0 0 Z " fill="#7293D3" transform="translate(449,263)"/>
<path d="M0 0 C2.12508244 3.18762365 2.5020163 5.26512223 3 9 C2.01 8.67 1.02 8.34 0 8 C-1.22393475 5.04215769 -0.96516243 3.00272755 0 0 Z " fill="#98B4ED" transform="translate(447,260)"/>
<path d="M0 0 C1.33333333 0 2.66666667 0 4 0 C4 1.65 4 3.3 4 5 C2.35 4.67 0.7 4.34 -1 4 C-0.67 2.68 -0.34 1.36 0 0 Z " fill="#2A303D" transform="translate(494,110)"/>
<path d="M0 0 C2.9719385 1.12451727 5.33440687 2.22293791 8 4 C8 4.66 8 5.32 8 6 C5.0280615 4.87548273 2.66559313 3.77706209 0 2 C0 1.34 0 0.68 0 0 Z " fill="#7081A2" transform="translate(396,213)"/>
<path d="M0 0 C3.93673644 1.31224548 6.22719294 2.91910327 9 6 C4.75177626 5.52797514 2.80010291 3.03344482 0 0 Z " fill="#6A87C0" transform="translate(396,185)"/>
</svg>
